# This file uses centimeters as units for non-parametric coordinates.

mtllib cd - closed.mtl
g default
v 0.951057 0.005119 -0.309017
v 0.809018 0.005119 -0.587786
v 0.587786 0.005119 -0.809017
v 0.309017 0.005119 -0.951057
v 0.000000 0.005119 -1.000000
v -0.309017 0.005119 -0.951057
v -0.587785 0.005119 -0.809017
v -0.809017 0.005119 -0.587785
v -0.951057 0.005119 -0.309017
v -1.000000 0.005119 0.000000
v -0.951057 0.005119 0.309017
v -0.809017 0.005119 0.587785
v -0.587785 0.005119 0.809017
v -0.309017 0.005119 0.951057
v -0.000000 0.005119 1.000000
v 0.309017 0.005119 0.951057
v 0.587785 0.005119 0.809017
v 0.809017 0.005119 0.587785
v 0.951057 0.005119 0.309017
v 1.000000 0.005119 0.000000
vt 0.648603 0.795466
vt 0.626409 0.751908
vt 0.591842 0.717341
vt 0.548284 0.695147
vt 0.500000 0.687500
vt 0.451716 0.695147
vt 0.408159 0.717341
vt 0.373591 0.751909
vt 0.351397 0.795466
vt 0.343750 0.843750
vt 0.351397 0.892034
vt 0.373591 0.935591
vt 0.408159 0.970159
vt 0.451716 0.992353
vt 0.500000 1.000000
vt 0.548284 0.992353
vt 0.591841 0.970159
vt 0.626409 0.935591
vt 0.648603 0.892034
vt 0.656250 0.843750
vn 0.000000 1.000000 -0.000000
vn 0.000000 1.000000 -0.000000
vn 0.000000 1.000000 -0.000000
vn 0.000000 1.000000 -0.000000
vn 0.000000 1.000000 -0.000000
vn 0.000000 1.000000 -0.000000
vn 0.000000 1.000000 -0.000000
vn 0.000000 1.000000 -0.000000
vn 0.000000 1.000000 -0.000000
vn 0.000000 1.000000 -0.000000
vn 0.000000 1.000000 -0.000000
vn 0.000000 1.000000 -0.000000
vn 0.000000 1.000000 -0.000000
vn 0.000000 1.000000 -0.000000
vn 0.000000 1.000000 -0.000000
vn 0.000000 1.000000 -0.000000
vn 0.000000 1.000000 -0.000000
vn 0.000000 1.000000 -0.000000
vn 0.000000 1.000000 -0.000000
vn 0.000000 1.000000 -0.000000
s off
g pCylinder1
usemtl initialShadingGroup
f 1/19/1 2/18/2 3/17/3 4/16/4 5/15/5 6/14/6 7/13/7 8/12/8 9/11/9 10/10/10 11/9/11 12/8/12 13/7/13 14/6/14 15/5/15 16/4/16 17/3/17 18/2/18 19/1/19 20/20/20
