# This file uses centimeters as units for non-parametric coordinates.

mtllib thinPlateSubdivis.mtl
g default
v -1.500000 -0.050000 1.500000
v 1.500000 -0.050000 1.500000
v -1.500000 0.050000 1.500000
v 1.500000 0.050000 1.500000
v -1.500000 0.050000 -1.500000
v 1.500000 0.050000 -1.500000
v -1.500000 -0.050000 -1.500000
v 1.500000 -0.050000 -1.500000
v 0.990000 0.050000 -1.500000
v 0.990000 0.050000 1.500000
v 0.990000 -0.050000 1.500000
v 0.990000 -0.050000 -1.500000
v -0.006000 0.050000 1.500000
v -0.006000 -0.050000 1.500000
v -0.006000 -0.050000 -1.500000
v -0.006000 0.050000 -1.500000
v -0.977100 0.050000 1.500000
v -0.977100 -0.050000 1.500000
v -0.977100 -0.050000 -1.500000
v -0.977100 0.050000 -1.500000
v -1.500000 0.050000 0.992996
v -0.977100 0.050000 0.992996
v -0.006000 0.050000 0.992996
v 0.990000 0.050000 0.992996
v 1.500000 0.050000 0.992996
v 1.500000 -0.050000 0.992996
v 0.990000 -0.050000 0.992996
v -0.006000 -0.050000 0.992996
v -0.977100 -0.050000 0.992996
v -1.500000 -0.050000 0.992996
v -1.500000 0.050000 0.000412
v -0.977100 0.050000 0.000412
v -0.006000 0.050000 0.000412
v 0.990000 0.050000 0.000412
v 1.500000 0.050000 0.000412
v 1.500000 -0.050000 0.000412
v 0.990000 -0.050000 0.000412
v -0.006000 -0.050000 0.000412
v -0.977100 -0.050000 0.000412
v -1.500000 -0.050000 0.000412
v -1.500000 0.050000 -1.004749
v -0.977100 0.050000 -1.004749
v -0.006000 0.050000 -1.004749
v 0.990000 0.050000 -1.004749
v 1.500000 0.050000 -1.004749
v 1.500000 -0.050000 -1.004749
v 0.990000 -0.050000 -1.004749
v -0.006000 -0.050000 -1.004749
v -0.977100 -0.050000 -1.004749
v -1.500000 -0.050000 -1.004749
vt 0.375000 0.000000
vt 0.625000 0.000000
vt 0.625000 0.250000
vt 0.375000 0.250000
vt 0.625000 0.500000
vt 0.375000 0.500000
vt 0.625000 0.750000
vt 0.375000 0.750000
vt 0.625000 1.000000
vt 0.375000 1.000000
vt 0.875000 0.000000
vt 0.875000 0.250000
vt 0.125000 0.000000
vt 0.125000 0.250000
vt 0.582500 0.500000
vt 0.582500 0.250000
vt 0.582500 0.000000
vt 0.582500 1.000000
vt 0.582500 0.750000
vt 0.499500 0.250000
vt 0.499500 0.000000
vt 0.499500 1.000000
vt 0.499500 0.750000
vt 0.499500 0.500000
vt 0.418575 0.250000
vt 0.418575 0.000000
vt 0.418575 1.000000
vt 0.418575 0.750000
vt 0.418575 0.500000
vt 0.375000 0.292250
vt 0.332750 0.250000
vt 0.418575 0.292250
vt 0.499500 0.292250
vt 0.582500 0.292250
vt 0.625000 0.292250
vt 0.667250 0.250000
vt 0.625000 0.957750
vt 0.667250 0.000000
vt 0.582500 0.957750
vt 0.499500 0.957750
vt 0.418575 0.957750
vt 0.375000 0.957750
vt 0.332750 0.000000
vt 0.375000 0.374966
vt 0.250034 0.250000
vt 0.418575 0.374966
vt 0.499500 0.374966
vt 0.582500 0.374966
vt 0.625000 0.374966
vt 0.749966 0.250000
vt 0.625000 0.875034
vt 0.749966 0.000000
vt 0.582500 0.875034
vt 0.499500 0.875034
vt 0.418575 0.875034
vt 0.375000 0.875034
vt 0.250034 0.000000
vt 0.375000 0.458729
vt 0.166271 0.250000
vt 0.418575 0.458729
vt 0.499500 0.458729
vt 0.582500 0.458729
vt 0.625000 0.458729
vt 0.833729 0.250000
vt 0.625000 0.791271
vt 0.833729 0.000000
vt 0.582500 0.791271
vt 0.499500 0.791271
vt 0.418575 0.791271
vt 0.375000 0.791271
vt 0.166271 0.000000
vn 0.000000 0.000000 1.000000
vn 0.000000 0.000000 1.000000
vn 0.000000 0.000000 1.000000
vn 0.000000 0.000000 1.000000
vn 0.000000 1.000000 0.000000
vn -0.000000 1.000000 -0.000000
vn 0.000000 1.000000 0.000000
vn 0.000000 1.000000 -0.000000
vn 0.000000 0.000000 -1.000000
vn 0.000000 0.000000 -1.000000
vn 0.000000 0.000000 -1.000000
vn 0.000000 0.000000 -1.000000
vn -0.000000 -1.000000 -0.000000
vn 0.000000 -1.000000 0.000000
vn -0.000000 -1.000000 -0.000000
vn -0.000000 -1.000000 -0.000000
vn 1.000000 0.000000 -0.000000
vn 1.000000 0.000000 0.000000
vn 1.000000 0.000000 0.000000
vn 1.000000 0.000000 -0.000000
vn -1.000000 0.000000 0.000000
vn -1.000000 0.000000 0.000000
vn -1.000000 0.000000 0.000000
vn -1.000000 0.000000 0.000000
vn 0.000000 1.000000 -0.000000
vn 0.000000 1.000000 -0.000000
vn 0.000000 0.000000 1.000000
vn 0.000000 0.000000 1.000000
vn 0.000000 -1.000000 -0.000000
vn 0.000000 -1.000000 -0.000000
vn 0.000000 0.000000 -1.000000
vn 0.000000 0.000000 -1.000000
vn 0.000000 0.000000 1.000000
vn 0.000000 0.000000 1.000000
vn 0.000000 -1.000000 -0.000000
vn 0.000000 -1.000000 -0.000000
vn 0.000000 0.000000 -1.000000
vn 0.000000 0.000000 -1.000000
vn 0.000000 1.000000 -0.000000
vn 0.000000 1.000000 -0.000000
vn 0.000000 0.000000 1.000000
vn 0.000000 0.000000 1.000000
vn 0.000000 -1.000000 0.000000
vn 0.000000 -1.000000 0.000000
vn 0.000000 0.000000 -1.000000
vn 0.000000 0.000000 -1.000000
vn 0.000000 1.000000 0.000000
vn 0.000000 1.000000 0.000000
vn 0.000000 1.000000 0.000000
vn 0.000000 1.000000 0.000000
vn 0.000000 1.000000 0.000000
vn 0.000000 1.000000 0.000000
vn 0.000000 1.000000 0.000000
vn 0.000000 1.000000 0.000000
vn 0.000000 1.000000 0.000000
vn 0.000000 1.000000 0.000000
vn 0.000000 1.000000 0.000000
vn -0.000000 1.000000 0.000000
vn 1.000000 0.000000 0.000000
vn 1.000000 0.000000 0.000000
vn 1.000000 0.000000 0.000000
vn 1.000000 0.000000 0.000000
vn 0.000000 -1.000000 -0.000000
vn 0.000000 -1.000000 0.000000
vn 0.000000 -1.000000 0.000000
vn 0.000000 -1.000000 -0.000000
vn 0.000000 -1.000000 -0.000000
vn 0.000000 -1.000000 -0.000000
vn 0.000000 -1.000000 -0.000000
vn 0.000000 -1.000000 0.000000
vn 0.000000 -1.000000 0.000000
vn 0.000000 -1.000000 0.000000
vn -1.000000 0.000000 0.000000
vn -1.000000 0.000000 0.000000
vn -1.000000 0.000000 0.000000
vn -1.000000 0.000000 0.000000
vn 0.000000 1.000000 0.000000
vn 0.000000 1.000000 0.000000
vn 0.000000 1.000000 0.000000
vn 0.000000 1.000000 0.000000
vn -0.000000 1.000000 0.000000
vn 1.000000 0.000000 0.000000
vn 1.000000 0.000000 0.000000
vn -0.000000 -1.000000 -0.000000
vn -0.000000 -1.000000 0.000000
vn 0.000000 -1.000000 -0.000000
vn 0.000000 -1.000000 -0.000000
vn 0.000000 -1.000000 0.000000
vn -1.000000 0.000000 0.000000
vn -1.000000 0.000000 0.000000
s 1
g thinPlate:pCube1
usemtl initialShadingGroup
f 11/17/1 2/2/2 4/3/3 10/16/4
s 2
f 44/62/5 45/63/6 6/5/7 9/15/8
s 3
f 12/19/9 9/15/10 6/5/11 8/7/12
s 4
f 12/19/13 8/7/14 46/65/15 47/67/16
s 5
f 46/66/17 8/11/18 6/12/19 45/64/20
s 6
f 7/13/21 50/71/22 41/59/23 5/14/24
s 2
f 16/24/25 43/61/26 44/62/5 9/15/8
s 1
f 14/21/27 11/17/1 10/16/4 13/20/28
s 4
f 15/23/29 12/19/13 47/67/16 48/68/30
s 3
f 16/24/31 9/15/10 12/19/9 15/23/32
s 1
f 18/26/33 14/21/27 13/20/28 17/25/34
s 4
f 19/28/35 15/23/29 48/68/30 49/69/36
s 3
f 20/29/37 16/24/31 15/23/32 19/28/38
s 2
f 20/29/39 42/60/40 43/61/26 16/24/25
s 1
f 1/1/41 18/26/33 17/25/34 3/4/42
s 4
f 7/8/43 19/28/35 49/69/36 50/70/44
s 3
f 5/6/45 20/29/37 19/28/38 7/8/46
s 2
f 41/58/47 42/60/40 20/29/39 5/6/48
f 3/4/49 17/25/50 22/32/51 21/30/52
f 23/33/53 22/32/51 17/25/50 13/20/54
f 24/34/55 23/33/53 13/20/54 10/16/56
f 10/16/56 4/3/57 25/35/58 24/34/55
s 5
f 2/2/59 26/38/60 25/36/61 4/3/62
s 4
f 27/39/63 26/37/64 2/9/65 11/18/66
f 28/40/67 27/39/63 11/18/66 14/22/68
f 29/41/69 28/40/67 14/22/68 18/27/70
f 30/42/71 29/41/69 18/27/70 1/10/72
s 6
f 21/31/73 30/43/74 1/1/75 3/4/76
s 2
f 21/30/52 22/32/51 32/46/77 31/44/78
f 33/47/79 32/46/77 22/32/51 23/33/53
f 34/48/80 33/47/79 23/33/53 24/34/55
f 24/34/55 25/35/58 35/49/81 34/48/80
s 5
f 26/38/60 36/52/82 35/50/83 25/36/61
s 4
f 37/53/84 36/51/85 26/37/64 27/39/63
f 38/54/86 37/53/84 27/39/63 28/40/67
f 39/55/87 38/54/86 28/40/67 29/41/69
f 40/56/88 39/55/87 29/41/69 30/42/71
s 6
f 31/45/89 40/57/90 30/43/74 21/31/73
s 2
f 31/44/78 32/46/77 42/60/40 41/58/47
f 43/61/26 42/60/40 32/46/77 33/47/79
f 44/62/5 43/61/26 33/47/79 34/48/80
f 34/48/80 35/49/81 45/63/6 44/62/5
s 5
f 36/52/82 46/66/17 45/64/20 35/50/83
s 4
f 47/67/16 46/65/15 36/51/85 37/53/84
f 48/68/30 47/67/16 37/53/84 38/54/86
f 49/69/36 48/68/30 38/54/86 39/55/87
f 50/70/44 49/69/36 39/55/87 40/56/88
s 6
f 41/59/23 50/71/22 40/57/90 31/45/89
