# This file uses centimeters as units for non-parametric coordinates.

mtllib voxelThinPlate.mtl
g default
v -0.500000 -0.500000 0.500000
v 0.500000 -0.500000 0.500000
v 0.500000 0.500000 0.500000
v -0.500000 0.500000 0.500000
v -0.500000 -0.500000 -0.500000
v -0.500000 0.500000 -0.500000
v -0.500000 0.052877 -0.500000
v -0.500000 0.052877 0.198862
v -0.500000 -0.139806 0.198862
v -0.500000 -0.139806 -0.500000
v 0.500000 -0.500000 -0.500000
v 0.500000 0.500000 -0.500000
v 0.137106 -0.139806 -0.500000
v 0.137106 0.052877 -0.500000
v 0.137106 0.052877 0.198862
v 0.137106 -0.139806 0.198862
vt 0.375000 0.000000
vt 0.625000 0.000000
vt 0.625000 0.250000
vt 0.375000 0.250000
vt 0.125000 0.000000
vt 0.125000 0.250000
vt 0.125000 0.138219
vt 0.299715 0.138219
vt 0.299715 0.090049
vt 0.125000 0.090049
vt 0.375000 0.750000
vt 0.625000 0.750000
vt 0.625000 1.000000
vt 0.375000 1.000000
vt 0.875000 0.000000
vt 0.875000 0.250000
vt 0.625000 0.500000
vt 0.375000 0.500000
vt 0.375000 0.659951
vt 0.534277 0.659951
vt 0.534277 0.611781
vt 0.375000 0.611781
vt 0.468373 0.000000
vt 0.468373 0.250000
vt 0.625000 0.250000
vt 0.625000 0.000000
vt 0.625000 0.826732
vt 0.468373 0.826732
vt 0.468373 1.000000
vt 0.625000 1.000000
vt 0.798268 0.250000
vt 0.798268 0.000000
vt 0.468373 0.423268
vt 0.625000 0.423268
vn 0.000000 0.000000 1.000000
vn 0.000000 0.000000 1.000000
vn 0.000000 0.000000 1.000000
vn 0.000000 0.000000 1.000000
vn -1.000000 0.000000 0.000000
vn -1.000000 0.000000 0.000000
vn -1.000000 0.000000 0.000000
vn -1.000000 0.000000 0.000000
vn -1.000000 0.000000 0.000000
vn -1.000000 0.000000 0.000000
vn -1.000000 0.000000 0.000000
vn -1.000000 0.000000 0.000000
vn 0.000000 -1.000000 0.000000
vn 0.000000 -1.000000 0.000000
vn 0.000000 -1.000000 0.000000
vn 0.000000 -1.000000 0.000000
vn 1.000000 0.000000 0.000000
vn 1.000000 0.000000 0.000000
vn 1.000000 0.000000 0.000000
vn 1.000000 0.000000 0.000000
vn 0.000000 1.000000 0.000000
vn 0.000000 1.000000 0.000000
vn 0.000000 1.000000 0.000000
vn 0.000000 1.000000 0.000000
vn 0.000000 0.000000 -1.000000
vn 0.000000 0.000000 -1.000000
vn 0.000000 0.000000 -1.000000
vn 0.000000 0.000000 -1.000000
vn 0.000000 0.000000 -1.000000
vn 0.000000 0.000000 -1.000000
vn 0.000000 0.000000 -1.000000
vn 0.000000 0.000000 -1.000000
vn 0.000000 0.000000 -1.000000
vn 0.000000 0.000000 -1.000000
vn 0.000000 0.000000 -1.000000
vn 0.000000 0.000000 -1.000000
vn 0.000000 1.000000 0.000000
vn 0.000000 1.000000 0.000000
vn 0.000000 1.000000 0.000000
vn 0.000000 1.000000 0.000000
vn -1.000000 0.000000 0.000000
vn -1.000000 0.000000 0.000000
vn -1.000000 0.000000 0.000000
vn -1.000000 0.000000 0.000000
vn 0.000000 -1.000000 0.000000
vn 0.000000 -1.000000 0.000000
vn 0.000000 -1.000000 0.000000
vn 0.000000 -1.000000 0.000000
s off
g pCube3
usemtl initialShadingGroup
f 1/1/1 2/2/2 3/3/3 4/4/4
f 5/5/5 1/1/6 4/4/7 6/6/8 7/7/9 8/8/10 9/9/11 10/10/12
f 5/11/13 11/12/14 2/13/15 1/14/16
f 2/2/17 11/15/18 12/16/19 3/3/20
f 4/4/21 3/3/22 12/17/23 6/18/24
f 6/18/25 12/17/26 11/12/27 5/11/28 10/19/29 13/20/30 14/21/31 7/22/32
f 9/23/33 8/24/34 15/25/35 16/26/36
f 13/27/37 10/28/38 9/29/39 16/30/40
f 14/31/41 13/32/42 16/26/43 15/25/44
f 8/24/45 7/33/46 14/34/47 15/25/48
