# This file uses centimeters as units for non-parametric coordinates.

mtllib voxelHole.mtl
g default
v 0.000000 0.200000 0.500000
v 0.061803 0.190211 0.500000
v 0.117557 0.161803 0.500000
v 0.161804 0.117557 0.500000
v 0.190211 0.061803 0.500000
v 0.200000 0.000000 0.500000
v 0.190211 -0.061803 0.500000
v 0.161803 -0.117557 0.500000
v 0.117557 -0.161803 0.500000
v 0.061803 -0.190211 0.500000
v -0.000000 -0.200000 0.500000
v -0.500000 -0.500000 0.500000
v 0.500000 -0.500000 0.500000
v 0.500000 0.500000 0.500000
v -0.061803 -0.190211 0.500000
v -0.117557 -0.161803 0.500000
v -0.161803 -0.117557 0.500000
v -0.190211 -0.061803 0.500000
v -0.200000 0.000000 0.500000
v -0.190211 0.061803 0.500000
v -0.161803 0.117557 0.500000
v -0.117557 0.161803 0.500000
v -0.061803 0.190211 0.500000
v -0.500000 0.500000 0.500000
v -0.500000 -0.500000 -0.500000
v -0.500000 0.500000 -0.500000
v 0.500000 -0.500000 -0.500000
v 0.500000 0.500000 -0.500000
v 0.061803 0.190211 -0.500000
v 0.000000 0.200000 -0.500000
v -0.061803 0.190211 -0.500000
v -0.117557 0.161803 -0.500000
v -0.161803 0.117557 -0.500000
v -0.190211 0.061803 -0.500000
v -0.200000 -0.000000 -0.500000
v -0.190211 -0.061803 -0.500000
v -0.161803 -0.117557 -0.500000
v -0.117557 -0.161803 -0.500000
v -0.061803 -0.190211 -0.500000
v -0.000000 -0.200000 -0.500000
v 0.061803 -0.190211 -0.500000
v 0.117557 -0.161803 -0.500000
v 0.161803 -0.117557 -0.500000
v 0.190211 -0.061803 -0.500000
v 0.200000 -0.000000 -0.500000
v 0.190211 0.061803 -0.500000
v 0.161804 0.117557 -0.500000
v 0.117557 0.161803 -0.500000
vt 0.500000 0.175000
vt 0.515451 0.172553
vt 0.529389 0.165451
vt 0.540451 0.154389
vt 0.547553 0.140451
vt 0.550000 0.125000
vt 0.547553 0.109549
vt 0.540451 0.095611
vt 0.529389 0.084549
vt 0.515451 0.077447
vt 0.500000 0.075000
vt 0.375000 0.000000
vt 0.625000 0.000000
vt 0.625000 0.250000
vt 0.484549 0.077447
vt 0.470611 0.084549
vt 0.459549 0.095611
vt 0.452447 0.109549
vt 0.450000 0.125000
vt 0.452447 0.140451
vt 0.459549 0.154389
vt 0.470611 0.165451
vt 0.484549 0.172553
vt 0.375000 0.250000
vt 0.125000 0.000000
vt 0.125000 0.250000
vt 0.375000 0.750000
vt 0.625000 0.750000
vt 0.625000 1.000000
vt 0.375000 1.000000
vt 0.875000 0.000000
vt 0.875000 0.250000
vt 0.625000 0.500000
vt 0.375000 0.500000
vt 0.515451 0.577447
vt 0.500000 0.575000
vt 0.484549 0.577447
vt 0.470611 0.584549
vt 0.459549 0.595611
vt 0.452447 0.609549
vt 0.450000 0.625000
vt 0.452447 0.640451
vt 0.459549 0.654389
vt 0.470611 0.665451
vt 0.484549 0.672553
vt 0.500000 0.675000
vt 0.515451 0.672553
vt 0.529389 0.665451
vt 0.540451 0.654389
vt 0.547553 0.640451
vt 0.550000 0.625000
vt 0.547553 0.609549
vt 0.540451 0.595611
vt 0.529389 0.584549
vt 0.387500 0.406485
vt 0.375000 0.406485
vt 0.375000 0.594455
vt 0.387500 0.594455
vt 0.400000 0.406485
vt 0.400000 0.594455
vt 0.625000 0.406485
vt 0.612500 0.406485
vt 0.612500 0.594455
vt 0.625000 0.594455
vt 0.412500 0.406485
vt 0.412500 0.594455
vt 0.600000 0.406485
vt 0.600000 0.594455
vt 0.425000 0.406485
vt 0.425000 0.594455
vt 0.587500 0.406485
vt 0.587500 0.594455
vt 0.437500 0.406485
vt 0.437500 0.594455
vt 0.575000 0.406485
vt 0.575000 0.594455
vt 0.450000 0.406485
vt 0.450000 0.594455
vt 0.562500 0.406485
vt 0.562500 0.594455
vt 0.462500 0.406485
vt 0.462500 0.594455
vt 0.550000 0.406485
vt 0.550000 0.594455
vt 0.475000 0.406485
vt 0.475000 0.594455
vt 0.537500 0.406485
vt 0.537500 0.594455
vt 0.487500 0.406485
vt 0.487500 0.594455
vt 0.525000 0.406485
vt 0.525000 0.594455
vt 0.500000 0.406485
vt 0.500000 0.594455
vt 0.512500 0.406485
vt 0.512500 0.594455
vn 0.000000 0.000000 1.000000
vn -0.000000 0.000000 1.000000
vn -0.000000 0.000000 1.000000
vn 0.000000 0.000000 1.000000
vn -0.000000 0.000000 1.000000
vn -0.000000 0.000000 1.000000
vn -0.000000 0.000000 1.000000
vn -0.000001 0.000000 1.000000
vn -0.000000 0.000000 1.000000
vn 0.000000 0.000000 1.000000
vn -0.000000 0.000000 1.000000
vn 0.000000 0.000000 1.000000
vn 0.000000 0.000000 1.000000
vn 0.000000 0.000000 1.000000
vn 0.000000 0.000000 1.000000
vn 0.000000 0.000000 1.000000
vn 0.000000 0.000000 1.000000
vn 0.000000 0.000000 1.000000
vn 0.000000 0.000000 1.000000
vn 0.000001 0.000000 1.000000
vn 0.000000 0.000000 1.000000
vn 0.000000 0.000000 1.000000
vn 0.000000 0.000000 1.000000
vn 0.000000 0.000000 1.000000
vn -1.000000 0.000000 0.000000
vn -1.000000 0.000000 0.000000
vn -1.000000 0.000000 0.000000
vn -1.000000 0.000000 0.000000
vn 0.000000 -1.000000 0.000000
vn 0.000000 -1.000000 0.000000
vn 0.000000 -1.000000 0.000000
vn 0.000000 -1.000000 0.000000
vn 1.000000 0.000000 0.000000
vn 1.000000 0.000000 0.000000
vn 1.000000 0.000000 0.000000
vn 1.000000 0.000000 0.000000
vn 0.000000 1.000000 0.000000
vn 0.000000 1.000000 0.000000
vn 0.000000 1.000000 0.000000
vn 0.000000 1.000000 0.000000
vn -0.000000 0.000000 -1.000000
vn 0.000000 0.000000 -1.000000
vn 0.000000 0.000000 -1.000000
vn 0.000000 0.000000 -1.000000
vn 0.000000 0.000000 -1.000000
vn 0.000000 0.000000 -1.000000
vn 0.000000 0.000000 -1.000000
vn 0.000000 0.000000 -1.000000
vn 0.000000 0.000000 -1.000000
vn 0.000000 0.000000 -1.000000
vn 0.000000 0.000000 -1.000000
vn 0.000000 0.000000 -1.000000
vn 0.000000 0.000000 -1.000000
vn 0.000000 0.000000 -1.000000
vn 0.000000 0.000000 -1.000000
vn 0.000000 0.000000 -1.000000
vn 0.000000 0.000000 -1.000000
vn 0.000000 0.000000 -1.000000
vn -0.000001 0.000000 -1.000000
vn -0.000000 0.000000 -1.000000
vn 0.000000 0.000000 -1.000000
vn 0.000000 0.000000 -1.000000
vn 0.000000 0.000000 -1.000000
vn -0.000001 0.000000 -1.000000
vn -0.809017 -0.587785 0.000000
vn -0.951057 -0.309016 0.000000
vn -0.809017 -0.587785 0.000000
vn -0.951057 -0.309016 0.000000
vn -0.587785 -0.809017 0.000000
vn -0.587785 -0.809017 0.000000
vn -1.000000 0.000001 0.000000
vn -1.000000 0.000001 0.000000
vn -0.309017 -0.951057 0.000000
vn -0.309017 -0.951057 0.000000
vn -0.951057 0.309017 0.000000
vn -0.951057 0.309017 0.000000
vn -0.000000 -1.000000 0.000000
vn 0.000000 -1.000000 0.000000
vn -0.809017 0.587785 0.000000
vn -0.809017 0.587785 0.000000
vn 0.309017 -0.951057 0.000000
vn 0.309017 -0.951057 0.000000
vn -0.587785 0.809017 0.000000
vn -0.587785 0.809017 0.000000
vn 0.587786 -0.809017 0.000000
vn 0.587785 -0.809017 0.000000
vn -0.309017 0.951057 0.000000
vn -0.309017 0.951056 0.000000
vn 0.809017 -0.587785 0.000000
vn 0.809017 -0.587785 0.000000
vn -0.000000 1.000000 0.000000
vn -0.000000 1.000000 0.000000
vn 0.951057 -0.309017 0.000000
vn 0.951057 -0.309017 0.000000
vn 0.309017 0.951057 0.000000
vn 0.309017 0.951057 0.000000
vn 1.000000 -0.000000 0.000000
vn 1.000000 0.000000 0.000000
vn 0.587785 0.809017 0.000000
vn 0.587785 0.809017 0.000000
vn 0.951057 0.309017 0.000000
vn 0.951057 0.309017 0.000000
vn 0.809017 0.587785 0.000000
vn 0.809017 0.587786 0.000000
s 1
g pCube2
usemtl initialShadingGroup
f 12/12/1 13/13/2 11/11/3
f 1/1/4 2/2/5 14/14/6
f 11/11/3 13/13/2 10/10/7
f 2/2/5 3/3/8 14/14/6
f 10/10/7 13/13/2 9/9/9
f 3/3/8 4/4/10 14/14/6
f 9/9/9 13/13/2 8/8/11
f 4/4/10 5/5/12 14/14/6
f 8/8/11 13/13/2 7/7/13
f 13/13/2 14/14/6 7/7/13
f 7/7/13 14/14/6 6/6/14
f 5/5/12 6/6/14 14/14/6
f 14/14/6 24/24/15 1/1/4
f 11/11/3 15/15/16 12/12/1
f 1/1/4 24/24/15 23/23/17
f 15/15/16 16/16/18 12/12/1
f 23/23/17 24/24/15 22/22/19
f 16/16/18 17/17/20 12/12/1
f 22/22/19 24/24/15 21/21/21
f 17/17/20 18/18/22 12/12/1
f 21/21/21 24/24/15 20/20/23
f 12/12/1 18/18/22 24/24/15
f 18/18/22 19/19/24 24/24/15
f 19/19/24 20/20/23 24/24/15
s 3
f 25/25/25 12/12/26 26/26/27
f 26/26/27 12/12/26 24/24/28
s 4
f 25/27/29 27/28/30 12/30/31
f 12/30/31 27/28/30 13/29/32
s 5
f 13/13/33 27/31/34 14/14/35
f 14/14/35 27/31/34 28/32/36
s 6
f 24/24/37 14/14/38 26/34/39
f 26/34/39 14/14/38 28/33/40
s 7
f 29/35/41 30/36/42 26/34/43
f 30/36/42 31/37/44 26/34/43
f 40/46/45 25/27/46 39/45/47
f 31/37/44 32/38/48 26/34/43
f 39/45/47 25/27/46 38/44/49
f 32/38/48 33/39/50 26/34/43
f 38/44/49 25/27/46 37/43/51
f 33/39/50 34/40/52 26/34/43
f 37/43/51 25/27/46 36/42/53
f 26/34/43 34/40/52 25/27/46
f 34/40/52 35/41/54 25/27/46
f 35/41/54 36/42/53 25/27/46
f 26/34/43 28/33/55 29/35/41
f 25/27/46 40/46/45 27/28/56
f 40/46/45 41/47/57 27/28/56
f 41/47/57 42/48/58 27/28/56
f 29/35/41 28/33/55 48/54/59
f 42/48/58 43/49/60 27/28/56
f 48/54/59 28/33/55 47/53/61
f 43/49/60 44/50/62 27/28/56
f 47/53/61 28/33/55 46/52/63
f 28/33/55 27/28/56 46/52/63
f 46/52/63 27/28/56 45/51/64
f 27/28/56 44/50/62 45/51/64
s 9
f 47/55/65 46/56/66 4/58/67
f 4/58/67 46/56/66 5/57/68
f 48/59/69 47/55/65 3/60/70
f 3/60/70 47/55/65 4/58/67
f 46/61/66 45/62/71 5/64/68
f 5/64/68 45/62/71 6/63/72
f 29/65/73 48/59/69 2/66/74
f 2/66/74 48/59/69 3/60/70
f 45/62/71 44/67/75 6/63/72
f 6/63/72 44/67/75 7/68/76
f 30/69/77 29/65/73 1/70/78
f 1/70/78 29/65/73 2/66/74
f 44/67/75 43/71/79 7/68/76
f 7/68/76 43/71/79 8/72/80
f 31/73/81 30/69/77 23/74/82
f 23/74/82 30/69/77 1/70/78
f 43/71/79 42/75/83 8/72/80
f 8/72/80 42/75/83 9/76/84
f 32/77/85 31/73/81 22/78/86
f 22/78/86 31/73/81 23/74/82
f 42/75/83 41/79/87 9/76/84
f 9/76/84 41/79/87 10/80/88
f 33/81/89 32/77/85 21/82/90
f 21/82/90 32/77/85 22/78/86
f 41/79/87 40/83/91 10/80/88
f 10/80/88 40/83/91 11/84/92
f 34/85/93 33/81/89 20/86/94
f 20/86/94 33/81/89 21/82/90
f 40/83/91 39/87/95 11/84/92
f 11/84/92 39/87/95 15/88/96
f 35/89/97 34/85/93 19/90/98
f 19/90/98 34/85/93 20/86/94
f 39/87/95 38/91/99 15/88/96
f 15/88/96 38/91/99 16/92/100
f 36/93/101 35/89/97 18/94/102
f 18/94/102 35/89/97 19/90/98
f 38/91/99 37/95/103 16/92/100
f 16/92/100 37/95/103 17/96/104
f 37/95/103 36/93/101 17/96/104
f 17/96/104 36/93/101 18/94/102
